# xmcd
#
# Track frame offsets:
#	150
#	16825
#	30792
#	47590
#	65162
#	87670
#	102876
#	119990
#	134530
#	148782
#	162292
#	180564
#	194476
#	211788
#
# Disc length: 3023 seconds
#
# Revision: 4
# Processed by: cddbd v1.5.2PL0 Copyright (c) Steve Scherf et al.
# Submitted via: EZCDAudioConverter 6.0.2.1
#
DISCID=ca0bcd0e
DTITLE=Trace Adkins - Til The Last Shots Fired
DYEAR=2010
DGENRE=Country
TTITLE0=Ladies Love Country Boys
TTITLE1=Lonely Won't Leave Me Alone
TTITLE2=You're Gonna Miss This
TTITLE3=Muddy Water
TTITLE4=Til The Last Shot's Fired
TTITLE5=Songs About Me
TTITLE6=I Wanna Feel Something
TTITLE7=The Rest Of Mine
TTITLE8=I Got My Game On
TTITLE9=Every Light In The House
TTITLE10=Don't Lie
TTITLE11=More
TTITLE12=Help Me Understand
TTITLE13=Dangerous Man
EXTD=
EXTT0=
EXTT1=
EXTT2=
EXTT3=
EXTT4=
EXTT5=
EXTT6=
EXTT7=
EXTT8=
EXTT9=
EXTT10=
EXTT11=
EXTT12=
EXTT13=
PLAYORDER=
